PathFileType	4	(X/Y/Z)	C:/Users/opensim2020/Desktop/walking_exp_matlab/subject02_walking13_straight_03.trc																																																																																																																									
DataRate	CameraRate	NumFrames	NumMarkers	Units	OrigDataRate	OrigDataStartFrame	OrigNumFrames																																																																																																																					
100	100	7	41	mm	100	1392	129																																																																																																																					
Frame#	Time	LFHD			RFHD			LBHD			RBHD			C7			T10			CLAV			STRN			RBAK			LSHO			LUPA			LELB			LFRM			LWRA			LWRB			LFIN			RSHO			RUPA			RELB			RFRM			RWRA			RWRB			RFIN			LASI			RASI			LPSI			RPSI			LTHI			LKNE			LTIB			LANK			LHEE			LTOE			RTHI			RKNE			RTIB			RANK			RHEE			RTOE			*39			*40		
		X1	Y1	Z1	X2	Y2	Z2	X3	Y3	Z3	X4	Y4	Z4	X5	Y5	Z5	X6	Y6	Z6	X7	Y7	Z7	X8	Y8	Z8	X9	Y9	Z9	X10	Y10	Z10	X11	Y11	Z11	X12	Y12	Z12	X13	Y13	Z13	X14	Y14	Z14	X15	Y15	Z15	X16	Y16	Z16	X17	Y17	Z17	X18	Y18	Z18	X19	Y19	Z19	X20	Y20	Z20	X21	Y21	Z21	X22	Y22	Z22	X23	Y23	Z23	X24	Y24	Z24	X25	Y25	Z25	X26	Y26	Z26	X27	Y27	Z27	X28	Y28	Z28	X29	Y29	Z29	X30	Y30	Z30	X31	Y31	Z31	X32	Y32	Z32	X33	Y33	Z33	X34	Y34	Z34	X35	Y35	Z35	X36	Y36	Z36	X37	Y37	Z37	X38	Y38	Z38	X39	Y39	Z39	X40	Y40	Z40	X41	Y41	Z41
																																																																																																																												
81	0.8	383.95084	1717.51367	-1051.55994	343.7605	1687.3252	-915.05597	265.61533	1638.26746	-1102.80029	214.87463	1605.58289	-971.63544	196.52592	1488.84253	-1046.26306	158.06694	1213.12109	-1051.3877	342.04971	1430.29919	-1041.15112	401.94266	1261.75684	-1038.16431	141.25444	1307.99878	-1001.15283	289.53189	1482.29321	-1211.80103	340.52078	1314.2533	-1328.60461	401.86615	1193.52734	-1376.4801	509.58969	1114.2832	-1397.75012	640.76819	1081.52197	-1372.98767	609.84656	1044.06665	-1402.14063	672.1557	1024.9054	-1412.52539	248.63626	1447.34351	-853.49536	178.93152	1262.60413	-791.47565	162.43842	1118.5365	-781.96191	154.07201	1000.31451	-760.2561	171.08936	864.20953	-770.53766	118.00814	874.95911	-751.41028	132.87022	803.67712	-743.52466	388.19839	959.54718	-1192.46582	401.827	952.08643	-935.15161	183.04005	997.75269	-1094.2395	181.50327	995.01483	-981.59045	250.12057	661.56006	-1248.21326	168.38094	477.54971	-1228.04785	29.08301	340.19348	-1232.86462	-74.10804	136.20537	-1212.92188	-114.5021	129.68109	-1162.7782	47.9316	32.17761	-1216.177	415.03946	657.93756	-862.12695	477.99454	461.12534	-911.79211	488.39474	272.98434	-919.30273	527.90839	88.1223	-957.89429	505.7995	39.15	-1020.20331	684.67108	51.50451	-938.46655	256.82043	1771.20825	-990.04364	2845.16357	1034.25244	-3360.35254
82	0.81	397.09457	1718.61853	-1049.67798	356.91156	1688.65015	-912.79694	278.99609	1638.69482	-1099.79163	228.20132	1606.53284	-969.30615	209.55962	1488.92285	-1043.26257	172.82751	1213.18079	-1048.8313	355.42648	1431.19165	-1038.46045	416.17819	1263.01892	-1035.21484	155.24147	1308.08862	-998.52393	302.44577	1482.45776	-1209.56323	353.01117	1313.59888	-1326.01575	414.03082	1192.56262	-1373.94348	522.26123	1113.87708	-1394.59229	653.44342	1082.17212	-1369.72144	622.9212	1044.26135	-1398.58057	685.38623	1025.65283	-1408.8009	261.92276	1447.22791	-850.64551	193.23798	1261.91614	-788.79102	176.56119	1117.79907	-780.29327	168.16199	999.86688	-758.3786	184.08162	863.83978	-768.85687	131.17664	874.71167	-749.76239	145.30846	803.65967	-741.85553	404.91055	958.74426	-1188.62183	417.14188	952.39691	-932.11707	199.21632	997.70685	-1092.29333	197.79015	996.37854	-978.87854	268.22971	661.23785	-1246.49207	187.80612	478.12601	-1228.7157	43.40884	346.2785	-1231.61157	-65.80684	145.36487	-1213.46899	-104.06456	141.08775	-1162.19629	48.00967	32.28377	-1216.66284	429.31812	659.68555	-857.73163	496.62048	464.89117	-910.62689	503.28271	277.10684	-914.54883	530.00732	88.3747	-958.573	505.88422	39.60781	-1020.13861	685.289	48.06258	-941.06879	269.77313	1772.00293	-987.79346	2845.32813	1034.13062	-3360.4729
83	0.82	409.96896	1719.80615	-1047.19824	370.01416	1689.80078	-910.92627	291.84268	1640.06592	-1097.8219	241.45322	1607.78625	-966.57428	223.19951	1490.08618	-1040.49536	187.37816	1213.47107	-1046.75403	368.62686	1432.64148	-1035.79517	430.55554	1264.71216	-1032.3009	169.28107	1308.59436	-995.76007	315.5043	1482.99036	-1207.69788	365.31348	1313.15149	-1323.13098	425.68723	1191.77649	-1371.0105	534.0791	1113.27112	-1391.2749	665.13574	1082.10364	-1366.20618	634.87842	1043.85242	-1394.80835	697.50293	1025.53357	-1404.70728	275.36472	1447.5321	-847.59473	207.62888	1261.86096	-786.03442	191.96509	1117.69287	-777.99066	182.6319	999.8363	-756.30066	197.9156	863.84326	-766.7984	145.29088	874.93506	-747.89081	158.91541	803.83112	-739.98425	421.49124	958.16187	-1184.11914	432.45993	953.32428	-928.67657	215.57001	998.43317	-1090.78479	213.59367	998.85522	-975.89838	286.82059	661.08917	-1244.73706	208.85689	478.64456	-1229.40869	59.97901	352.62817	-1230.22717	-54.91434	154.82381	-1213.6416	-91.00334	152.52397	-1160.95093	48.38552	32.47854	-1216.81653	442.86197	660.83826	-855.32159	514.88989	468.93088	-910.26483	516.99194	280.53262	-912.51276	532.25427	90.71359	-959.35944	507.06836	40.0589	-1019.80664	687.77258	46.16848	-943.492	282.5899	1773.25806	-985.90356	2846.00244	1034.40466	-3357.27466
84	0.83	422.94485	1721.01953	-1045.0282	383.08035	1691.05139	-908.5401	304.77808	1641.19897	-1095.37866	254.49277	1609.11768	-963.99536	237.05634	1491.73035	-1037.85876	201.77873	1213.97266	-1044.64087	381.81161	1434.27576	-1033.21912	444.88385	1266.57654	-1029.42224	183.38023	1309.1969	-992.8017	328.60559	1483.98535	-1205.72974	377.16394	1312.69324	-1319.59888	436.78281	1191.23743	-1367.8999	545.02618	1112.43286	-1387.67639	675.91949	1081.31091	-1362.38184	645.7124	1042.75745	-1390.91577	708.54321	1024.68701	-1400.57153	288.76706	1448.3855	-844.86237	222.36502	1262.30188	-783.27264	207.0208	1118.14368	-776.06647	197.57594	1000.39746	-754.25031	213.25017	864.27631	-764.60736	160.16032	875.36877	-745.9538	174.008	804.25977	-737.94531	437.75781	958.06177	-1179.22595	447.72177	954.73096	-924.92041	231.82515	999.65552	-1089.46533	228.84717	1001.42181	-972.93762	305.77814	660.72339	-1242.96326	231.50555	478.53085	-1229.6925	79.48645	357.84161	-1229.01672	-41.39154	163.97736	-1213.67725	-75.39143	164.00993	-1159.99915	49.48624	32.74536	-1216.74207	456.49918	661.40302	-853.97369	530.40131	470.68552	-910.45734	528.72449	282.53201	-911.69336	537.1781	92.50956	-959.03998	508.03522	41.01804	-1019.66974	690.40833	44.56195	-943.73743	295.79218	1774.38159	-983.4931	2846.06641	1034.39758	-3357.3728
85	0.84	435.76495	1722.104	-1042.62866	396.16867	1692.63623	-906.00092	317.77655	1642.13831	-1092.67444	267.53094	1610.23596	-961.6803	250.74525	1493.27075	-1035.47009	215.73653	1214.75452	-1042.32764	395.14365	1435.87524	-1030.73645	459.20285	1268.51208	-1026.66418	197.46613	1309.98755	-989.97449	341.85068	1485.29736	-1203.46558	389.11804	1313.14063	-1316.94458	447.37796	1190.85925	-1364.67737	555.24268	1111.39038	-1383.89941	685.84631	1079.66504	-1358.25269	655.6236	1041.0321	-1386.62732	718.54407	1022.75195	-1396.0188	301.97421	1450.05139	-842.63959	237.02458	1263.16467	-780.5387	222.80232	1118.88416	-773.8316	213.33716	1001.36688	-752.16669	229.13536	864.93585	-762.23267	176.17737	876.34039	-743.53693	189.75938	804.91986	-735.84039	453.63782	958.39252	-1174.14319	462.86157	956.32141	-921.18445	247.41884	1001.0116	-1087.85803	243.77234	1003.75964	-970.14313	325.11975	659.9519	-1241.22375	255.38585	477.69916	-1229.64807	101.41145	361.82242	-1227.94543	-24.67327	172.40131	-1213.76306	-57.7544	175.03011	-1159.26416	52.30525	32.96226	-1216.53162	470.56995	661.67755	-852.84247	543.51941	470.57715	-910.14374	537.66968	282.74652	-911.34894	539.29614	91.88198	-959.63409	508.58362	41.15928	-1020.06763	691.3927	43.62875	-943.90729	308.72385	1775.80859	-981.15479	2845.89917	1034.49683	-3357.3916
86	0.85	448.60599	1723.74646	-1040.36023	408.97726	1694.07446	-903.83875	330.80026	1643.34094	-1090.39893	280.69711	1611.14221	-959.13574	264.08038	1494.4259	-1033.29565	229.67387	1215.77087	-1040.03381	408.64972	1437.47302	-1028.39307	473.31256	1270.44116	-1024.02112	211.47701	1310.95923	-987.45258	355.23929	1486.55518	-1201.02112	400.75717	1313.45007	-1313.81311	457.44812	1190.67261	-1361.58777	564.81012	1109.9845	-1380.03528	695.06567	1077.25574	-1353.89624	664.73383	1038.69226	-1382.14832	727.52527	1019.86761	-1391.13171	314.89966	1451.73157	-840.54352	251.94203	1264.47681	-777.78552	238.4599	1120.03955	-771.81549	229.76163	1002.54407	-749.88721	245.98309	866.38525	-759.9032	193.00604	877.42926	-741.01343	206.62393	805.8465	-733.62836	468.51425	958.94586	-1168.14575	477.64462	958.26166	-917.58624	262.31158	1002.3504	-1086.02783	258.67023	1005.71008	-967.71631	344.88672	658.69598	-1239.42871	279.93817	476.49442	-1229.54529	125.00128	364.4754	-1227.11536	-5.63657	180.3378	-1214.02893	-38.48633	185.64922	-1158.68652	58.57064	35.05796	-1216.37378	485.34586	661.67426	-852.19958	554.341	469.93228	-909.57721	542.71313	281.4675	-912.09186	539.99255	91.7381	-960.42676	508.76144	41.19411	-1020.21082	692.70746	43.05218	-945.06415	321.35944	1776.99487	-978.74878	2845.97461	1034.32068	-3357.27905
87	0.86	461.21439	1725.55017	-1037.87732	421.46127	1695.97632	-901.42004	343.76147	1644.93933	-1088.50745	293.49829	1612.72192	-957.31079	276.92975	1495.14417	-1031.37622	243.49046	1217.19482	-1037.55798	422.19336	1439.15051	-1026.22668	487.22681	1272.37769	-1021.59637	225.45131	1312.11377	-985.23767	368.32047	1487.99207	-1198.53174	412.49701	1314.25684	-1311.36548	467.32742	1190.45142	-1358.20044	573.77148	1108.4519	-1376.00366	703.57263	1074.01538	-1349.23328	672.96631	1035.67651	-1377.58081	735.57312	1016.10071	-1386.25256	327.96048	1453.66455	-838.6712	266.61423	1266.01196	-775.28613	254.43236	1121.4624	-769.56299	246.86424	1003.97278	-747.60608	263.77933	867.45764	-757.30103	210.69879	878.61047	-738.37744	224.38593	806.8703	-731.28546	483.22748	959.77252	-1163.06506	491.96075	960.51703	-914.02679	276.6344	1003.81281	-1084.09924	273.48886	1007.37048	-965.41083	365.18808	657.18945	-1237.65601	305.04718	475.16476	-1229.41248	149.71964	366.01019	-1227.28467	13.56556	188.10541	-1213.09021	-18.41881	195.18031	-1156.65417	69.90998	39.81908	-1218.14368	499.56818	662.50696	-851.88727	563.25873	468.6759	-908.7973	545.79144	280.08301	-912.29236	540.92615	91.75832	-960.48596	508.57724	41.42972	-1019.88934	693.29492	42.60867	-945.40515	333.75867	1778.41077	-976.57898	2845.22363	1034.31714	-3360.31006
